<?xml version="1.0" encoding="UTF-8" standalone="no"?><!-- Generator: Gravit.io --><svg xmlns="http://www.w3.org/2000/svg" xmlns:xlink="http://www.w3.org/1999/xlink" style="isolation:isolate" viewBox="0 0 512 512" width="512pt" height="512pt"><defs><clipPath id="_clipPath_xDd4dyU8SHCm8lB2ABpU2heJh8vZCiK3"><rect width="512" height="512"/></clipPath></defs><g clip-path="url(#_clipPath_xDd4dyU8SHCm8lB2ABpU2heJh8vZCiK3)"><rect width="512" height="512" style="fill:rgb(0,0,0)" fill-opacity="0"/><g><g><path d=" M 436.27 437.019 C 336.363 536.927 174.139 536.927 74.231 437.019 C -25.676 337.112 -25.676 174.888 74.231 74.981 L 74.231 74.981 L 74.231 74.981 L 74.231 74.981 L 436.27 437.019 Z  M 436.27 74.981 L 436.27 74.981 L 436.27 74.981 L 436.27 74.981 Z " fill-rule="evenodd" fill="rgb(207,216,220)"/><path d=" M 436.27 437.019 C 536.177 337.112 536.177 174.888 436.27 74.981 C 336.363 -24.927 174.139 -24.927 74.231 74.981 L 74.231 74.981 L 74.231 74.981 L 74.231 74.981 L 436.27 437.019 Z  M 74.231 437.019 L 74.231 437.019 L 74.231 437.019 L 74.231 437.019 Z " fill-rule="evenodd" fill="rgb(236,239,241)"/></g><g><rect x="242.296" y="28.715" width="27.408" height="65.095" transform="matrix(1,0,0,1,0,0)" fill="rgb(152,166,172)"/><rect x="437.033" y="223.453" width="27.408" height="65.095" transform="matrix(0,1,-1,0,706.737,-194.737)" fill="rgb(152,166,172)"/><rect x="242.296" y="418.19" width="27.408" height="65.095" transform="matrix(-1,0,0,-1,512,901.474)" fill="rgb(152,166,172)"/><rect x="47.559" y="223.453" width="27.408" height="65.095" transform="matrix(0,-1,1,0,-194.737,317.263)" fill="rgb(152,166,172)"/><path d=" M 75.016 436.984 C -24.872 337.096 -24.872 174.904 75.016 75.016 C 174.904 -24.872 337.096 -24.872 436.984 75.016 C 536.872 174.904 536.872 337.096 436.984 436.984 C 337.096 536.872 174.904 536.872 75.016 436.984 L 75.016 436.984 L 75.016 436.984 L 75.016 436.984 L 75.016 436.984 Z  M 30.688 256.585 C 30.688 131.529 132.073 30 256.95 30 C 381.827 30 483.212 131.529 483.212 256.585 C 483.212 381.641 381.827 483.171 256.95 483.171 C 132.073 483.171 30.688 381.641 30.688 256.585 Z " fill-rule="evenodd" fill="rgb(152,166,172)"/></g><g><path d=" M 216.667 295.333 L 295.333 216.667 L 152.909 139.437 C 144.167 134.255 134.265 144.128 139.418 152.879 L 216.667 295.333 Z " fill="rgb(255,61,0)"/><path d=" M 256 256 L 295.333 216.667 L 152.909 139.437 C 149.061 137.068 144.083 137.694 140.942 140.942 L 256 256 Z " fill="rgb(221,44,0)"/><path d=" M 295.333 216.667 L 216.667 295.333 L 359.091 372.563 C 367.833 377.745 377.735 367.872 372.582 359.121 L 295.333 216.667 Z " fill="rgb(255,255,255)"/><path d=" M 256 256 L 216.667 295.333 L 359.091 372.563 C 362.939 374.932 367.917 374.306 371.058 371.058 L 256 256 Z " fill="rgb(176,190,197)"/><path d=" M 256 216.667 C 240.094 216.671 225.756 226.254 219.669 240.949 C 213.583 255.645 216.946 272.559 228.192 283.808 L 283.818 228.182 C 276.445 220.798 266.435 216.655 256 216.667 Z " fill="rgb(221,44,0)"/><path d=" M 256 295.333 C 271.906 295.329 286.244 285.746 292.331 271.051 C 298.417 256.355 295.054 239.441 283.808 228.192 L 228.182 283.818 C 235.555 291.202 245.565 295.345 256 295.333 Z " fill="rgb(176,190,197)"/><circle vector-effect="non-scaling-stroke" cx="255.9999993797224" cy="255.99999997658813" r="19.66636320258094" fill="rgb(255,255,255)"/></g></g></g></svg>