<?xml version="1.0" encoding="UTF-8" standalone="no"?>
<svg
   class="h-6 w-6 text-white"
   fill="none"
   viewBox="0 0 512 512"
   stroke="currentColor"
   version="1.1"
   id="svg1"
   width="512"
   height="512"
   xmlns:xlink="http://www.w3.org/1999/xlink"
   xmlns="http://www.w3.org/2000/svg"
   xmlns:svg="http://www.w3.org/2000/svg">
  <defs
     id="defs1">
    <linearGradient
       id="linearGradient1">
      <stop
         style="stop-color:#3b82f6;stop-opacity:1;"
         offset="0"
         id="stop1" />
      <stop
         style="stop-color:#1d4ed8;stop-opacity:1;"
         offset="1"
         id="stop2" />
    </linearGradient>
    <linearGradient
       xlink:href="#linearGradient1"
       id="linearGradient2"
       x1="-28.316002"
       y1="-1.4263151"
       x2="-10.15915"
       y2="21.765297"
       gradientUnits="userSpaceOnUse"
       gradientTransform="matrix(27.362319,0,0,21.515669,779.13044,37.19658)" />
  </defs>
  <rect
     style="opacity:1;fill:url(#linearGradient2);stroke:none;stroke-width:24.2635;stroke-linecap:round;stroke-linejoin:round;stroke-dasharray:none;paint-order:fill markers stroke"
     id="rect1"
     width="512"
     height="512"
     x="0"
     y="0"
     ry="0" />
  <path
     stroke-linecap="round"
     stroke-linejoin="round"
     stroke-width="29.1093"
     d="m 252.61066,240.92053 c 0,51.18867 -14.68563,98.95701 -40.06894,139.30248 m -50.06798,-29.69145 0.78594,-1.30987 a 202.54243,202.54243 0 0 0 31.13238,-108.3011 58.21858,58.21858 0 1 1 116.43716,0 c 0,14.80207 -1.01866,29.38584 -2.95458,43.66394 m -30.82675,99.61199 a 318.45563,318.45563 0 0 0 21.71554,-55.94806 m 55.87526,16.47587 c 9.38778,-32.9808 14.40911,-67.81007 14.40911,-103.80369 A 116.43715,116.43715 0 0 0 194.39208,140.05684 m -72.77323,164.38015 c 9.31498,-19.19757 14.55465,-40.753 14.55465,-63.51646 0,-21.20612 5.67631,-41.08777 15.57347,-58.21858"
     id="path1"
     style="stroke:#fcfaff;stroke-opacity:1" />
</svg>
