<svg class="w-full h-full" viewBox="0 0 512 512">
                                <g x-ref="compassArrow" style="transform-origin: center;">
                                  <path d=" M 248.445 67.683 C 248.279 67.978 248.129 68.282 247.997 68.594 C 247.526 69.592 247.22 70.66 247.092 71.756 L 210.24 254.254 C 210.013 255.45 210.013 256.677 210.24 257.872 L 246.875 440.559 C 247.687 445.167 251.69 448.526 256.369 448.526 C 261.048 448.526 265.051 445.166 265.862 440.559 L 302.498 257.858 C 302.724 256.663 302.724 255.435 302.498 254.24 L 265.638 71.749 C 264.964 68.179 262.335 65.294 258.844 64.29 C 255.352 63.287 251.593 64.336 249.126 67.002 L 248.453 67.675 L 248.445 67.683 Z  M 229.683 256.056 L 283.048 256.049 L 256.362 389.465 L 229.683 256.056 Z " fill="#000"></path>
                                </g>
                              </svg>