<svg class="w-full my-4" viewBox="0 0 512 512">
        <path d=" M 255.5 0.024 C 255.06 0.105 254.62 0.228 254.221 0.341 L 253.903 0.341 C 115.633 1.702 3.354 113.11 0.632 251.054 L 0.632 251.371 C -0.728 254.201 -0.728 257.495 0.632 260.325 L 0.632 260.653 C 3.027 399.742 116.799 512 256.462 512 L 259.02 512 C 398.365 510.598 511.248 397.511 512.291 258.084 C 512.371 257.449 512.371 256.806 512.291 256.17 L 512.291 254.891 C 512.331 254.466 512.331 254.038 512.291 253.612 C 510.93 114.39 397.966 1.538 258.703 0.341 C 257.661 0.055 256.578 -0.052 255.5 0.024 Z  M 244.315 21.114 C 244.949 21.073 245.594 21.155 246.229 21.114 L 246.229 31.04 C 246.188 34.724 248.111 38.152 251.304 40.035 C 254.507 41.877 258.416 41.877 261.619 40.035 C 264.812 38.152 266.736 34.714 266.695 31.04 L 266.695 21.124 C 388.654 26.333 486.299 123.978 491.508 245.937 L 479.678 245.937 C 474.04 246.449 469.875 251.494 470.397 257.132 C 470.919 262.761 475.953 266.925 481.592 266.404 L 491.508 266.404 C 486.299 388.363 388.654 486.008 266.695 491.216 L 266.695 481.3 C 266.799 478.357 265.63 475.51 263.487 473.49 C 261.343 471.47 258.432 470.471 255.5 470.75 C 255.06 470.832 254.62 470.955 254.221 471.067 C 249.461 472.142 246.118 476.422 246.229 481.3 L 246.229 491.216 C 124.269 486.008 26.624 388.363 21.416 266.404 L 31.332 266.404 C 35.016 266.444 38.444 264.521 40.327 261.328 C 42.165 258.135 42.165 254.205 40.327 251.013 C 38.444 247.82 35.005 245.896 31.332 245.937 L 21.416 245.937 C 26.573 124.623 123.236 27.244 244.315 21.124 L 244.315 21.114 Z " fill="currentColor"></path>
        <g x-ref="compassArrow" style="transform-origin: center;">
          <path d=" M 248.445 67.683 C 248.279 67.978 248.129 68.282 247.997 68.594 C 247.526 69.592 247.22 70.66 247.092 71.756 L 210.24 254.254 C 210.013 255.45 210.013 256.677 210.24 257.872 L 246.875 440.559 C 247.687 445.167 251.69 448.526 256.369 448.526 C 261.048 448.526 265.051 445.166 265.862 440.559 L 302.498 257.858 C 302.724 256.663 302.724 255.435 302.498 254.24 L 265.638 71.749 C 264.964 68.179 262.335 65.294 258.844 64.29 C 255.352 63.287 251.593 64.336 249.126 67.002 L 248.453 67.675 L 248.445 67.683 Z  M 229.683 256.056 L 283.048 256.049 L 256.362 389.465 L 229.683 256.056 Z " fill="currentColor"></path>
        </g>
      </svg>